<svg width="600" height="600" viewBox="0 0 600 600" fill="none" xmlns="http://www.w3.org/2000/svg">
<g clip-path="url(#clip0_6367_31)">
<path d="M398.486 23.0957C398.486 10.3516 411.084 0 426.66 0C442.236 0 454.834 10.3516 454.834 23.0957V124.268C454.834 137.012 442.236 147.363 426.66 147.363C411.084 147.363 398.486 137.012 398.486 124.268V23.0957ZM144.58 23.0957C144.58 10.3516 157.178 0 172.754 0C188.33 0 200.928 10.3516 200.928 23.0957V124.268C200.928 137.012 188.33 147.363 172.754 147.363C157.178 147.363 144.58 137.012 144.58 124.268V23.0957ZM31.25 221.289H568.75V104.834C568.75 100.928 567.139 97.3633 564.551 94.7266C561.963 92.1387 558.398 90.5273 554.443 90.5273H502.93C494.287 90.5273 487.305 83.5449 487.305 74.9023C487.305 66.2598 494.287 59.2773 502.93 59.2773H554.443C566.992 59.2773 578.369 64.4043 586.621 72.6563C594.873 80.9082 600 92.2852 600 104.834V236.963V554.492C600 567.041 594.873 578.418 586.621 586.67C578.369 594.922 566.992 600.049 554.443 600.049H45.5566C33.0078 600.049 21.6309 594.922 13.3789 586.67C5.12695 578.369 0 566.992 0 554.443V236.963V104.834C0 92.2852 5.12695 80.9082 13.3789 72.6563C21.6309 64.4043 33.0078 59.2773 45.5566 59.2773H100.586C109.229 59.2773 116.211 66.2598 116.211 74.9023C116.211 83.5449 109.229 90.5273 100.586 90.5273H45.5566C41.6504 90.5273 38.0859 92.1387 35.4492 94.7266C32.8613 97.3145 31.25 100.879 31.25 104.834V221.289ZM568.75 252.588H31.25V554.443C31.25 558.35 32.8613 561.914 35.4492 564.551C38.0371 567.139 41.6016 568.75 45.5566 568.75H554.443C558.35 568.75 561.914 567.139 564.551 564.551C567.139 561.963 568.75 558.398 568.75 554.443V252.588ZM246.24 90.5273C237.598 90.5273 230.615 83.5449 230.615 74.9023C230.615 66.2598 237.598 59.2773 246.24 59.2773H351.172C359.814 59.2773 366.797 66.2598 366.797 74.9023C366.797 83.5449 359.814 90.5273 351.172 90.5273H246.24Z" fill="white"/>
</g>
<defs>
<clipPath id="clip0_6367_31">
<rect width="600" height="600" fill="white"/>
</clipPath>
</defs>
</svg>
